<svg id="visual" viewBox="0 0 900 675" width="900" height="675" xmlns="http://www.w3.org/2000/svg" xmlns:xlink="http://www.w3.org/1999/xlink" version="1.1"><rect x="0" y="0" width="900" height="675" fill="#FFFFFF"></rect><defs><linearGradient id="grad1_0" x1="25%" y1="0%" x2="100%" y2="100%"><stop offset="23.333333333333336%" stop-color="#ffffff" stop-opacity="1"></stop><stop offset="76.66666666666666%" stop-color="#ffffff" stop-opacity="1"></stop></linearGradient></defs><defs><linearGradient id="grad2_0" x1="0%" y1="0%" x2="75%" y2="100%"><stop offset="23.333333333333336%" stop-color="#ffffff" stop-opacity="1"></stop><stop offset="76.66666666666666%" stop-color="#ffffff" stop-opacity="1"></stop></linearGradient></defs><g transform="translate(900, 0)"><path d="M0 316C-36.7 301.1 -73.4 286.2 -113.7 274.4C-154 262.6 -197.9 254 -229.1 229.1C-260.3 204.2 -278.8 163 -294.7 122.1C-310.7 81.2 -324.1 40.6 -337.5 0L0 0Z" fill="#FBAE3C"></path></g><g transform="translate(0, 675)"><path d="M0 -313C41.6 -306.1 83.2 -299.2 116.7 -281.8C150.2 -264.4 175.6 -236.5 211.4 -211.4C247.2 -186.3 293.5 -163.9 311.8 -129.2C330.1 -94.4 320.6 -47.2 311 0L0 0Z" fill="#FBAE3C"></path></g></svg>